<?xml version="1.0" standalone="no"?>
<!DOCTYPE svg PUBLIC "-//W3C//DTD SVG 20010904//EN"
 "http://www.w3.org/TR/2001/REC-SVG-20010904/DTD/svg10.dtd">
<svg version="1.0" xmlns="http://www.w3.org/2000/svg"
 width="512.000000pt" height="512.000000pt" viewBox="0 0 512.000000 512.000000"
 preserveAspectRatio="xMidYMid meet">
<metadata>
Created by potrace 1.14, written by Peter Selinger 2001-2017
</metadata>
<g transform="translate(0.000000,512.000000) scale(0.100000,-0.100000)"
fill="#000000" stroke="none">
<path d="M0 2560 l0 -2560 2560 0 2560 0 0 2560 0 2560 -2560 0 -2560 0 0
-2560z m1540 1436 l0 -203 -104 -7 c-240 -15 -276 -56 -276 -310 0 -300 -34
-549 -90 -663 -38 -77 -119 -166 -193 -213 -31 -19 -56 -37 -56 -40 0 -3 22
-18 50 -35 65 -38 157 -137 192 -207 58 -116 83 -277 95 -639 9 -249 13 -263
98 -310 44 -25 64 -29 167 -35 l117 -7 0 -205 0 -205 -182 6 c-310 11 -405 41
-537 170 -121 119 -135 177 -151 667 -12 339 -28 408 -116 496 -48 49 -130 83
-221 91 l-63 6 0 208 0 209 35 0 c98 0 211 45 265 106 74 85 89 158 100 499
14 401 30 498 99 599 108 156 293 222 634 225 l137 1 0 -204z m2411 190 c58
-8 131 -24 162 -35 71 -24 174 -97 220 -154 88 -107 104 -193 117 -592 12
-373 29 -453 114 -538 53 -54 168 -97 256 -97 l30 0 0 -209 0 -208 -63 -6
c-129 -12 -221 -65 -270 -156 -46 -84 -57 -161 -67 -476 -5 -170 -15 -325 -24
-374 -52 -294 -270 -421 -723 -421 l-123 0 0 205 0 205 48 0 c85 0 214 20 252
40 64 33 73 65 82 305 17 471 50 615 169 747 26 29 74 71 108 93 33 22 61 42
61 45 0 3 -17 14 -37 25 -21 11 -68 50 -104 86 -141 140 -178 285 -194 764 -8
222 -14 254 -58 291 -51 43 -88 53 -212 60 l-115 7 0 204 0 203 133 0 c72 0
180 -7 238 -14z"/>
</g>
</svg>
