<svg viewBox="0 0 640 640" xmlns="http://www.w3.org/2000/svg"><mask id="b" x="0" y="0" width="640" height="640"><path fill="url(#a)" d="M0 0h640v640H0z"/></mask><g style="transform-origin:center center" stroke="#001e1d" stroke-width=".64" mask="url(#b)"><path fill="none" d="M0 0h33.6v33.6H0zM33.6 0h33.6v33.6H33.6z" stroke-width=".672"/><path fill="#001e1d61" d="M67.2 0h33.6v33.6H67.2z" stroke-width=".672"/><path fill="none" d="M100.8 0h33.6v33.6h-33.6zM134.4 0H168v33.6h-33.6zM168 0h33.6v33.6H168z" stroke-width=".672"/><path fill="#001e1de1" d="M201.6 0h33.6v33.6h-33.6z" stroke-width=".672"/><path fill="none" d="M235.2 0h33.6v33.6h-33.6zM268.8 0h33.6v33.6h-33.6z" stroke-width=".672"/><path fill="#001e1d96" d="M302.4 0H336v33.6h-33.6z" stroke-width=".672"/><path fill="none" d="M336 0h33.6v33.6H336zM369.6 0h33.6v33.6h-33.6z" stroke-width=".672"/><path fill="none" d="M403.2 0h33.6v33.6h-33.6zM436.8 0h33.6v33.6h-33.6z" stroke-width=".672"/><path fill="none" d="M470.4 0H504v33.6h-33.6zM504 0h33.6v33.6H504z" stroke-width=".672"/><path fill="#001e1d2b" d="M537.6 0h33.6v33.6h-33.6z" stroke-width=".672"/><path fill="#001e1d44" d="M571.2 0h33.6v33.6h-33.6z" stroke-width=".672"/><path fill="none" d="M604.8 0h33.6v33.6h-33.6z" stroke-width=".672"/><path fill="#001e1d18" d="M638.4 0H672v33.6h-33.6z" stroke-width=".672"/><path fill="none" d="M0 33.6h33.6v33.6H0z" stroke-width=".672"/><path fill="#001e1d93" d="M33.6 33.6h33.6v33.6H33.6z" stroke-width=".672"/><path fill="none" d="M67.2 33.6h33.6v33.6H67.2z" stroke-width=".672"/><path fill="none" d="M100.8 33.6h33.6v33.6h-33.6zM134.4 33.6H168v33.6h-33.6z" stroke-width=".672"/><path fill="#001e1d48" d="M168 33.6h33.6v33.6H168z" stroke-width=".672"/><path fill="none" d="M201.6 33.6h33.6v33.6h-33.6zM235.2 33.6h33.6v33.6h-33.6zM268.8 33.6h33.6v33.6h-33.6z" stroke-width=".672"/><path fill="#001e1dfa" d="M302.4 33.6H336v33.6h-33.6z" stroke-width=".672"/><path fill="none" d="M336 33.6h33.6v33.6H336z" stroke-width=".672"/><path fill="#001e1d2f" d="M369.6 33.6h33.6v33.6h-33.6z" stroke-width=".672"/><path fill="none" d="M403.2 33.6h33.6v33.6h-33.6zM436.8 33.6h33.6v33.6h-33.6z" stroke-width=".672"/><path fill="none" d="M470.4 33.6H504v33.6h-33.6zM504 33.6h33.6v33.6H504zM537.6 33.6h33.6v33.6h-33.6zM571.2 33.6h33.6v33.6h-33.6z" stroke-width=".672"/><path fill="#001e1d74" d="M604.8 33.6h33.6v33.6h-33.6z" stroke-width=".672"/><path fill="#001e1d01" d="M638.4 33.6H672v33.6h-33.6z" stroke-width=".672"/><path fill="none" d="M0 67.2h33.6v33.6H0zM33.6 67.2h33.6v33.6H33.6zM67.2 67.2h33.6v33.6H67.2z" stroke-width=".672"/><path fill="#001e1d4e" d="M100.8 67.2h33.6v33.6h-33.6z" stroke-width=".672"/><path fill="#001e1d99" d="M134.4 67.2H168v33.6h-33.6z" stroke-width=".672"/><path fill="none" d="M168 67.2h33.6v33.6H168zM201.6 67.2h33.6v33.6h-33.6z" stroke-width=".672"/><path fill="#001e1d5b" d="M235.2 67.2h33.6v33.6h-33.6z" stroke-width=".672"/><path fill="none" d="M268.8 67.2h33.6v33.6h-33.6z" stroke-width=".672"/><path fill="none" d="M302.4 67.2H336v33.6h-33.6zM336 67.2h33.6v33.6H336z" stroke-width=".672"/><path fill="#001e1ded" d="M369.6 67.2h33.6v33.6h-33.6z" stroke-width=".672"/><path fill="none" d="M403.2 67.2h33.6v33.6h-33.6z" stroke-width=".672"/><path fill="#001e1dc5" d="M436.8 67.2h33.6v33.6h-33.6z" stroke-width=".672"/><path fill="none" d="M470.4 67.2H504v33.6h-33.6zM504 67.2h33.6v33.6H504zM537.6 67.2h33.6v33.6h-33.6zM571.2 67.2h33.6v33.6h-33.6z" stroke-width=".672"/><path fill="none" d="M604.8 67.2h33.6v33.6h-33.6zM638.4 67.2H672v33.6h-33.6zM0 100.8h33.6v33.6H0zM33.6 100.8h33.6v33.6H33.6zM67.2 100.8h33.6v33.6H67.2z" stroke-width=".672"/><path fill="none" d="M100.8 100.8h33.6v33.6h-33.6zM134.4 100.8H168v33.6h-33.6z" stroke-width=".672"/><path fill="#001e1d4f" d="M168 100.8h33.6v33.6H168z" stroke-width=".672"/><path fill="none" d="M201.6 100.8h33.6v33.6h-33.6z" stroke-width=".672"/><path fill="#001e1d27" d="M235.2 100.8h33.6v33.6h-33.6z" stroke-width=".672"/><path fill="none" d="M268.8 100.8h33.6v33.6h-33.6z" stroke-width=".672"/><path fill="#001e1d24" d="M302.4 100.8H336v33.6h-33.6z" stroke-width=".672"/><path fill="#001e1da4" d="M336 100.8h33.6v33.6H336z" stroke-width=".672"/><path fill="none" d="M369.6 100.8h33.6v33.6h-33.6z" stroke-width=".672"/><path fill="none" d="M403.2 100.8h33.6v33.6h-33.6zM436.8 100.8h33.6v33.6h-33.6z" stroke-width=".672"/><path fill="#001e1d5d" d="M470.4 100.8H504v33.6h-33.6z" stroke-width=".672"/><path fill="none" d="M504 100.8h33.6v33.6H504zM537.6 100.8h33.6v33.6h-33.6zM571.2 100.8h33.6v33.6h-33.6z" stroke-width=".672"/><path fill="none" d="M604.8 100.8h33.6v33.6h-33.6zM638.4 100.8H672v33.6h-33.6zM0 134.4h33.6V168H0zM33.6 134.4h33.6V168H33.6z" stroke-width=".672"/><path fill="#001e1de0" d="M67.2 134.4h33.6V168H67.2z" stroke-width=".672"/><path fill="none" d="M100.8 134.4h33.6V168h-33.6zM134.4 134.4H168V168h-33.6zM168 134.4h33.6V168H168zM201.6 134.4h33.6V168h-33.6zM235.2 134.4h33.6V168h-33.6zM268.8 134.4h33.6V168h-33.6z" stroke-width=".672"/><path fill="#001e1d71" d="M302.4 134.4H336V168h-33.6z" stroke-width=".672"/><path fill="#001e1da7" d="M336 134.4h33.6V168H336z" stroke-width=".672"/><path fill="none" d="M369.6 134.4h33.6V168h-33.6z" stroke-width=".672"/><path fill="none" d="M403.2 134.4h33.6V168h-33.6z" stroke-width=".672"/><path fill="#001e1d78" d="M436.8 134.4h33.6V168h-33.6z" stroke-width=".672"/><path fill="#001e1dc8" d="M470.4 134.4H504V168h-33.6z" stroke-width=".672"/><path fill="none" d="M504 134.4h33.6V168H504zM537.6 134.4h33.6V168h-33.6zM571.2 134.4h33.6V168h-33.6z" stroke-width=".672"/><path fill="none" d="M604.8 134.4h33.6V168h-33.6zM638.4 134.4H672V168h-33.6zM0 168h33.6v33.6H0z" stroke-width=".672"/><path fill="#001e1d93" d="M33.6 168h33.6v33.6H33.6z" stroke-width=".672"/><path fill="#001e1dc8" d="M67.2 168h33.6v33.6H67.2z" stroke-width=".672"/><path fill="none" d="M100.8 168h33.6v33.6h-33.6z" stroke-width=".672"/><path fill="#001e1dd0" d="M134.4 168H168v33.6h-33.6z" stroke-width=".672"/><path fill="#001e1dbe" d="M168 168h33.6v33.6H168z" stroke-width=".672"/><path fill="none" d="M201.6 168h33.6v33.6h-33.6zM235.2 168h33.6v33.6h-33.6z" stroke-width=".672"/><path fill="#001e1d3b" d="M268.8 168h33.6v33.6h-33.6z" stroke-width=".672"/><path fill="none" d="M302.4 168H336v33.6h-33.6z" stroke-width=".672"/><path fill="#001e1d4d" d="M336 168h33.6v33.6H336z" stroke-width=".672"/><path fill="none" d="M369.6 168h33.6v33.6h-33.6z" stroke-width=".672"/><path fill="#001e1da3" d="M403.2 168h33.6v33.6h-33.6z" stroke-width=".672"/><path fill="none" d="M436.8 168h33.6v33.6h-33.6z" stroke-width=".672"/><path fill="none" d="M470.4 168H504v33.6h-33.6z" stroke-width=".672"/><path fill="#001e1dad" d="M504 168h33.6v33.6H504z" stroke-width=".672"/><path fill="none" d="M537.6 168h33.6v33.6h-33.6z" stroke-width=".672"/><path fill="#001e1d86" d="M571.2 168h33.6v33.6h-33.6z" stroke-width=".672"/><path fill="#001e1da5" d="M604.8 168h33.6v33.6h-33.6z" stroke-width=".672"/><path fill="#001e1d3b" d="M638.4 168H672v33.6h-33.6z" stroke-width=".672"/><path fill="none" d="M0 201.6h33.6v33.6H0z" stroke-width=".672"/><path fill="#001e1db3" d="M33.6 201.6h33.6v33.6H33.6z" stroke-width=".672"/><path fill="none" d="M67.2 201.6h33.6v33.6H67.2z" stroke-width=".672"/><path fill="none" d="M100.8 201.6h33.6v33.6h-33.6zM134.4 201.6H168v33.6h-33.6zM168 201.6h33.6v33.6H168zM201.6 201.6h33.6v33.6h-33.6zM235.2 201.6h33.6v33.6h-33.6z" stroke-width=".672"/><path fill="#001e1ddd" d="M268.8 201.6h33.6v33.6h-33.6z" stroke-width=".672"/><path fill="none" d="M302.4 201.6H336v33.6h-33.6zM336 201.6h33.6v33.6H336zM369.6 201.6h33.6v33.6h-33.6z" stroke-width=".672"/><path fill="none" d="M403.2 201.6h33.6v33.6h-33.6zM436.8 201.6h33.6v33.6h-33.6z" stroke-width=".672"/><path fill="#001e1d79" d="M470.4 201.6H504v33.6h-33.6z" stroke-width=".672"/><path fill="none" d="M504 201.6h33.6v33.6H504z" stroke-width=".672"/><path fill="#001e1db0" d="M537.6 201.6h33.6v33.6h-33.6z" stroke-width=".672"/><path fill="none" d="M571.2 201.6h33.6v33.6h-33.6z" stroke-width=".672"/><path fill="none" d="M604.8 201.6h33.6v33.6h-33.6z" stroke-width=".672"/><path fill="#001e1dcb" d="M638.4 201.6H672v33.6h-33.6z" stroke-width=".672"/><path fill="none" d="M0 235.2h33.6v33.6H0zM33.6 235.2h33.6v33.6H33.6zM67.2 235.2h33.6v33.6H67.2z" stroke-width=".672"/><path fill="#001e1d3a" d="M100.8 235.2h33.6v33.6h-33.6z" stroke-width=".672"/><path fill="#001e1da3" d="M134.4 235.2H168v33.6h-33.6z" stroke-width=".672"/><path fill="none" d="M168 235.2h33.6v33.6H168zM201.6 235.2h33.6v33.6h-33.6zM235.2 235.2h33.6v33.6h-33.6z" stroke-width=".672"/><path fill="#001e1d5d" d="M268.8 235.2h33.6v33.6h-33.6z" stroke-width=".672"/><path fill="none" d="M302.4 235.2H336v33.6h-33.6zM336 235.2h33.6v33.6H336z" stroke-width=".672"/><path fill="#001e1d4d" d="M369.6 235.2h33.6v33.6h-33.6z" stroke-width=".672"/><path fill="#001e1d7a" d="M403.2 235.2h33.6v33.6h-33.6z" stroke-width=".672"/><path fill="none" d="M436.8 235.2h33.6v33.6h-33.6z" stroke-width=".672"/><path fill="none" d="M470.4 235.2H504v33.6h-33.6zM504 235.2h33.6v33.6H504zM537.6 235.2h33.6v33.6h-33.6zM571.2 235.2h33.6v33.6h-33.6z" stroke-width=".672"/><path fill="#001e1d1b" d="M604.8 235.2h33.6v33.6h-33.6z" stroke-width=".672"/><path fill="none" d="M638.4 235.2H672v33.6h-33.6zM0 268.8h33.6v33.6H0z" stroke-width=".672"/><path fill="#001e1dd4" d="M33.6 268.8h33.6v33.6H33.6z" stroke-width=".672"/><path fill="#001e1d40" d="M67.2 268.8h33.6v33.6H67.2z" stroke-width=".672"/><path fill="#001e1df7" d="M100.8 268.8h33.6v33.6h-33.6z" stroke-width=".672"/><path fill="none" d="M134.4 268.8H168v33.6h-33.6zM168 268.8h33.6v33.6H168z" stroke-width=".672"/><path fill="#001e1d2e" d="M201.6 268.8h33.6v33.6h-33.6z" stroke-width=".672"/><path fill="none" d="M235.2 268.8h33.6v33.6h-33.6z" stroke-width=".672"/><path fill="#001e1d33" d="M268.8 268.8h33.6v33.6h-33.6z" stroke-width=".672"/><path fill="#001e1d04" d="M302.4 268.8H336v33.6h-33.6z" stroke-width=".672"/><path fill="none" d="M336 268.8h33.6v33.6H336zM369.6 268.8h33.6v33.6h-33.6z" stroke-width=".672"/><path fill="#001e1d01" d="M403.2 268.8h33.6v33.6h-33.6z" stroke-width=".672"/><path fill="#001e1d94" d="M436.8 268.8h33.6v33.6h-33.6z" stroke-width=".672"/><path fill="none" d="M470.4 268.8H504v33.6h-33.6zM504 268.8h33.6v33.6H504zM537.6 268.8h33.6v33.6h-33.6zM571.2 268.8h33.6v33.6h-33.6z" stroke-width=".672"/><path fill="none" d="M604.8 268.8h33.6v33.6h-33.6z" stroke-width=".672"/><path fill="#001e1df3" d="M638.4 268.8H672v33.6h-33.6z" stroke-width=".672"/><path fill="none" d="M0 302.4h33.6V336H0zM33.6 302.4h33.6V336H33.6zM67.2 302.4h33.6V336H67.2z" stroke-width=".672"/><path fill="none" d="M100.8 302.4h33.6V336h-33.6zM134.4 302.4H168V336h-33.6z" stroke-width=".672"/><path fill="#001e1d95" d="M168 302.4h33.6V336H168z" stroke-width=".672"/><path fill="none" d="M201.6 302.4h33.6V336h-33.6z" stroke-width=".672"/><path fill="#001e1d40" d="M235.2 302.4h33.6V336h-33.6z" stroke-width=".672"/><path fill="none" d="M268.8 302.4h33.6V336h-33.6z" stroke-width=".672"/><path fill="none" d="M302.4 302.4H336V336h-33.6z" stroke-width=".672"/><path fill="#001e1dbc" d="M336 302.4h33.6V336H336z" stroke-width=".672"/><path fill="none" d="M369.6 302.4h33.6V336h-33.6z" stroke-width=".672"/><path fill="none" d="M403.2 302.4h33.6V336h-33.6zM436.8 302.4h33.6V336h-33.6z" stroke-width=".672"/><path fill="none" d="M470.4 302.4H504V336h-33.6zM504 302.4h33.6V336H504zM537.6 302.4h33.6V336h-33.6zM571.2 302.4h33.6V336h-33.6z" stroke-width=".672"/><path fill="none" d="M604.8 302.4h33.6V336h-33.6zM638.4 302.4H672V336h-33.6zM0 336h33.6v33.6H0z" stroke-width=".672"/><path fill="#001e1d81" d="M33.6 336h33.6v33.6H33.6z" stroke-width=".672"/><path fill="#001e1dfd" d="M67.2 336h33.6v33.6H67.2z" stroke-width=".672"/><path fill="none" d="M100.8 336h33.6v33.6h-33.6zM134.4 336H168v33.6h-33.6zM168 336h33.6v33.6H168zM201.6 336h33.6v33.6h-33.6zM235.2 336h33.6v33.6h-33.6z" stroke-width=".672"/><path fill="#001e1d85" d="M268.8 336h33.6v33.6h-33.6z" stroke-width=".672"/><path fill="none" d="M302.4 336H336v33.6h-33.6z" stroke-width=".672"/><path fill="#001e1db0" d="M336 336h33.6v33.6H336z" stroke-width=".672"/><path fill="#001e1d6d" d="M369.6 336h33.6v33.6h-33.6z" stroke-width=".672"/><path fill="none" d="M403.2 336h33.6v33.6h-33.6zM436.8 336h33.6v33.6h-33.6z" stroke-width=".672"/><path fill="#001e1d0d" d="M470.4 336H504v33.6h-33.6z" stroke-width=".672"/><path fill="none" d="M504 336h33.6v33.6H504z" stroke-width=".672"/><path fill="#001e1da0" d="M537.6 336h33.6v33.6h-33.6z" stroke-width=".672"/><path fill="#001e1dec" d="M571.2 336h33.6v33.6h-33.6z" stroke-width=".672"/><path fill="none" d="M604.8 336h33.6v33.6h-33.6zM638.4 336H672v33.6h-33.6z" stroke-width=".672"/><path fill="#001e1d23" d="M0 369.6h33.6v33.6H0z" stroke-width=".672"/><path fill="#001e1d26" d="M33.6 369.6h33.6v33.6H33.6z" stroke-width=".672"/><path fill="#001e1dd6" d="M67.2 369.6h33.6v33.6H67.2z" stroke-width=".672"/><path fill="none" d="M100.8 369.6h33.6v33.6h-33.6zM134.4 369.6H168v33.6h-33.6zM168 369.6h33.6v33.6H168zM201.6 369.6h33.6v33.6h-33.6z" stroke-width=".672"/><path fill="#001e1d9a" d="M235.2 369.6h33.6v33.6h-33.6z" stroke-width=".672"/><path fill="none" d="M268.8 369.6h33.6v33.6h-33.6z" stroke-width=".672"/><path fill="none" d="M302.4 369.6H336v33.6h-33.6zM336 369.6h33.6v33.6H336zM369.6 369.6h33.6v33.6h-33.6z" stroke-width=".672"/><path fill="none" d="M403.2 369.6h33.6v33.6h-33.6z" stroke-width=".672"/><path fill="#001e1d7e" d="M436.8 369.6h33.6v33.6h-33.6z" stroke-width=".672"/><path fill="none" d="M470.4 369.6H504v33.6h-33.6zM504 369.6h33.6v33.6H504zM537.6 369.6h33.6v33.6h-33.6z" stroke-width=".672"/><path fill="#001e1d80" d="M571.2 369.6h33.6v33.6h-33.6z" stroke-width=".672"/><path fill="none" d="M604.8 369.6h33.6v33.6h-33.6z" stroke-width=".672"/><path fill="#001e1db0" d="M638.4 369.6H672v33.6h-33.6z" stroke-width=".672"/><path fill="none" d="M0 403.2h33.6v33.6H0zM33.6 403.2h33.6v33.6H33.6zM67.2 403.2h33.6v33.6H67.2z" stroke-width=".672"/><path fill="#001e1d79" d="M100.8 403.2h33.6v33.6h-33.6z" stroke-width=".672"/><path fill="#001e1dbb" d="M134.4 403.2H168v33.6h-33.6z" stroke-width=".672"/><path fill="#001e1db8" d="M168 403.2h33.6v33.6H168z" stroke-width=".672"/><path fill="none" d="M201.6 403.2h33.6v33.6h-33.6zM235.2 403.2h33.6v33.6h-33.6zM268.8 403.2h33.6v33.6h-33.6z" stroke-width=".672"/><path fill="none" d="M302.4 403.2H336v33.6h-33.6z" stroke-width=".672"/><path fill="#001e1dcd" d="M336 403.2h33.6v33.6H336z" stroke-width=".672"/><path fill="#001e1d8c" d="M369.6 403.2h33.6v33.6h-33.6z" stroke-width=".672"/><path fill="none" d="M403.2 403.2h33.6v33.6h-33.6zM436.8 403.2h33.6v33.6h-33.6z" stroke-width=".672"/><path fill="none" d="M470.4 403.2H504v33.6h-33.6z" stroke-width=".672"/><path fill="#001e1d66" d="M504 403.2h33.6v33.6H504z" stroke-width=".672"/><path fill="none" d="M537.6 403.2h33.6v33.6h-33.6z" stroke-width=".672"/><path fill="#001e1db7" d="M571.2 403.2h33.6v33.6h-33.6z" stroke-width=".672"/><path fill="none" d="M604.8 403.2h33.6v33.6h-33.6zM638.4 403.2H672v33.6h-33.6z" stroke-width=".672"/><path fill="#001e1da3" d="M0 436.8h33.6v33.6H0z" stroke-width=".672"/><path fill="#001e1d3b" d="M33.6 436.8h33.6v33.6H33.6z" stroke-width=".672"/><path fill="none" d="M67.2 436.8h33.6v33.6H67.2z" stroke-width=".672"/><path fill="#001e1d03" d="M100.8 436.8h33.6v33.6h-33.6z" stroke-width=".672"/><path fill="none" d="M134.4 436.8H168v33.6h-33.6zM168 436.8h33.6v33.6H168zM201.6 436.8h33.6v33.6h-33.6zM235.2 436.8h33.6v33.6h-33.6zM268.8 436.8h33.6v33.6h-33.6z" stroke-width=".672"/><path fill="none" d="M302.4 436.8H336v33.6h-33.6z" stroke-width=".672"/><path fill="#001e1d64" d="M336 436.8h33.6v33.6H336z" stroke-width=".672"/><path fill="#001e1d12" d="M369.6 436.8h33.6v33.6h-33.6z" stroke-width=".672"/><path fill="none" d="M403.2 436.8h33.6v33.6h-33.6zM436.8 436.8h33.6v33.6h-33.6z" stroke-width=".672"/><path fill="#001e1db6" d="M470.4 436.8H504v33.6h-33.6z" stroke-width=".672"/><path fill="none" d="M504 436.8h33.6v33.6H504zM537.6 436.8h33.6v33.6h-33.6zM571.2 436.8h33.6v33.6h-33.6z" stroke-width=".672"/><path fill="#001e1da8" d="M604.8 436.8h33.6v33.6h-33.6z" stroke-width=".672"/><path fill="none" d="M638.4 436.8H672v33.6h-33.6z" stroke-width=".672"/><path fill="#001e1db7" d="M0 470.4h33.6V504H0z" stroke-width=".672"/><path fill="none" d="M33.6 470.4h33.6V504H33.6zM67.2 470.4h33.6V504H67.2z" stroke-width=".672"/><path fill="none" d="M100.8 470.4h33.6V504h-33.6zM134.4 470.4H168V504h-33.6z" stroke-width=".672"/><path fill="#001e1d5f" d="M168 470.4h33.6V504H168z" stroke-width=".672"/><path fill="none" d="M201.6 470.4h33.6V504h-33.6zM235.2 470.4h33.6V504h-33.6zM268.8 470.4h33.6V504h-33.6z" stroke-width=".672"/><path fill="none" d="M302.4 470.4H336V504h-33.6zM336 470.4h33.6V504H336zM369.6 470.4h33.6V504h-33.6z" stroke-width=".672"/><path fill="none" d="M403.2 470.4h33.6V504h-33.6z" stroke-width=".672"/><path fill="#001e1d31" d="M436.8 470.4h33.6V504h-33.6z" stroke-width=".672"/><path fill="#001e1d0a" d="M470.4 470.4H504V504h-33.6z" stroke-width=".672"/><path fill="none" d="M504 470.4h33.6V504H504zM537.6 470.4h33.6V504h-33.6zM571.2 470.4h33.6V504h-33.6z" stroke-width=".672"/><path fill="none" d="M604.8 470.4h33.6V504h-33.6zM638.4 470.4H672V504h-33.6zM0 504h33.6v33.6H0zM33.6 504h33.6v33.6H33.6z" stroke-width=".672"/><path fill="#001e1d2e" d="M67.2 504h33.6v33.6H67.2z" stroke-width=".672"/><path fill="none" d="M100.8 504h33.6v33.6h-33.6z" stroke-width=".672"/><path fill="#001e1d66" d="M134.4 504H168v33.6h-33.6z" stroke-width=".672"/><path fill="#001e1d63" d="M168 504h33.6v33.6H168z" stroke-width=".672"/><path fill="none" d="M201.6 504h33.6v33.6h-33.6z" stroke-width=".672"/><path fill="#001e1dd5" d="M235.2 504h33.6v33.6h-33.6z" stroke-width=".672"/><path fill="#001e1d64" d="M268.8 504h33.6v33.6h-33.6z" stroke-width=".672"/><path fill="none" d="M302.4 504H336v33.6h-33.6z" stroke-width=".672"/><path fill="#001e1d27" d="M336 504h33.6v33.6H336z" stroke-width=".672"/><path fill="none" d="M369.6 504h33.6v33.6h-33.6z" stroke-width=".672"/><path fill="none" d="M403.2 504h33.6v33.6h-33.6zM436.8 504h33.6v33.6h-33.6z" stroke-width=".672"/><path fill="none" d="M470.4 504H504v33.6h-33.6z" stroke-width=".672"/><path fill="#001e1d73" d="M504 504h33.6v33.6H504z" stroke-width=".672"/><path fill="none" d="M537.6 504h33.6v33.6h-33.6zM571.2 504h33.6v33.6h-33.6z" stroke-width=".672"/><path fill="none" d="M604.8 504h33.6v33.6h-33.6z" stroke-width=".672"/><path fill="#001e1d60" d="M638.4 504H672v33.6h-33.6z" stroke-width=".672"/><path fill="none" d="M0 537.6h33.6v33.6H0z" stroke-width=".672"/><path fill="#001e1d2c" d="M33.6 537.6h33.6v33.6H33.6z" stroke-width=".672"/><path fill="none" d="M67.2 537.6h33.6v33.6H67.2z" stroke-width=".672"/><path fill="none" d="M100.8 537.6h33.6v33.6h-33.6z" stroke-width=".672"/><path fill="#001e1df8" d="M134.4 537.6H168v33.6h-33.6z" stroke-width=".672"/><path fill="#001e1dab" d="M168 537.6h33.6v33.6H168z" stroke-width=".672"/><path fill="#001e1d03" d="M201.6 537.6h33.6v33.6h-33.6z" stroke-width=".672"/><path fill="none" d="M235.2 537.6h33.6v33.6h-33.6zM268.8 537.6h33.6v33.6h-33.6z" stroke-width=".672"/><path fill="none" d="M302.4 537.6H336v33.6h-33.6zM336 537.6h33.6v33.6H336zM369.6 537.6h33.6v33.6h-33.6z" stroke-width=".672"/><path fill="#001e1d31" d="M403.2 537.6h33.6v33.6h-33.6z" stroke-width=".672"/><path fill="#001e1d4c" d="M436.8 537.6h33.6v33.6h-33.6z" stroke-width=".672"/><path fill="none" d="M470.4 537.6H504v33.6h-33.6zM504 537.6h33.6v33.6H504zM537.6 537.6h33.6v33.6h-33.6zM571.2 537.6h33.6v33.6h-33.6z" stroke-width=".672"/><path fill="none" d="M604.8 537.6h33.6v33.6h-33.6zM638.4 537.6H672v33.6h-33.6zM0 571.2h33.6v33.6H0zM33.6 571.2h33.6v33.6H33.6zM67.2 571.2h33.6v33.6H67.2z" stroke-width=".672"/><path fill="none" d="M100.8 571.2h33.6v33.6h-33.6zM134.4 571.2H168v33.6h-33.6zM168 571.2h33.6v33.6H168z" stroke-width=".672"/><path fill="#001e1dae" d="M201.6 571.2h33.6v33.6h-33.6z" stroke-width=".672"/><path fill="none" d="M235.2 571.2h33.6v33.6h-33.6zM268.8 571.2h33.6v33.6h-33.6z" stroke-width=".672"/><path fill="#001e1dc7" d="M302.4 571.2H336v33.6h-33.6z" stroke-width=".672"/><path fill="none" d="M336 571.2h33.6v33.6H336zM369.6 571.2h33.6v33.6h-33.6z" stroke-width=".672"/><path fill="none" d="M403.2 571.2h33.6v33.6h-33.6zM436.8 571.2h33.6v33.6h-33.6z" stroke-width=".672"/><path fill="none" d="M470.4 571.2H504v33.6h-33.6zM504 571.2h33.6v33.6H504z" stroke-width=".672"/><path fill="#001e1db5" d="M537.6 571.2h33.6v33.6h-33.6z" stroke-width=".672"/><path fill="none" d="M571.2 571.2h33.6v33.6h-33.6z" stroke-width=".672"/><path fill="none" d="M604.8 571.2h33.6v33.6h-33.6zM638.4 571.2H672v33.6h-33.6z" stroke-width=".672"/><path fill="#001e1da4" d="M0 604.8h33.6v33.6H0z" stroke-width=".672"/><path fill="#001e1da6" d="M33.6 604.8h33.6v33.6H33.6z" stroke-width=".672"/><path fill="none" d="M67.2 604.8h33.6v33.6H67.2z" stroke-width=".672"/><path fill="#001e1d61" d="M100.8 604.8h33.6v33.6h-33.6z" stroke-width=".672"/><path fill="none" d="M134.4 604.8H168v33.6h-33.6z" stroke-width=".672"/><path fill="#001e1d35" d="M168 604.8h33.6v33.6H168z" stroke-width=".672"/><path fill="none" d="M201.6 604.8h33.6v33.6h-33.6zM235.2 604.8h33.6v33.6h-33.6z" stroke-width=".672"/><path fill="#001e1d31" d="M268.8 604.8h33.6v33.6h-33.6z" stroke-width=".672"/><path fill="none" d="M302.4 604.8H336v33.6h-33.6zM336 604.8h33.6v33.6H336zM369.6 604.8h33.6v33.6h-33.6z" stroke-width=".672"/><path fill="none" d="M403.2 604.8h33.6v33.6h-33.6zM436.8 604.8h33.6v33.6h-33.6z" stroke-width=".672"/><path fill="#001e1d0e" d="M470.4 604.8H504v33.6h-33.6z" stroke-width=".672"/><path fill="none" d="M504 604.8h33.6v33.6H504zM537.6 604.8h33.6v33.6h-33.6zM571.2 604.8h33.6v33.6h-33.6z" stroke-width=".672"/><path fill="#001e1ddf" d="M604.8 604.8h33.6v33.6h-33.6z" stroke-width=".672"/><path fill="none" d="M638.4 604.8H672v33.6h-33.6zM0 638.4h33.6V672H0zM33.6 638.4h33.6V672H33.6z" stroke-width=".672"/><path fill="#001e1d1a" d="M67.2 638.4h33.6V672H67.2z" stroke-width=".672"/><path fill="none" d="M100.8 638.4h33.6V672h-33.6zM134.4 638.4H168V672h-33.6zM168 638.4h33.6V672H168zM201.6 638.4h33.6V672h-33.6z" stroke-width=".672"/><path fill="#001e1d9a" d="M235.2 638.4h33.6V672h-33.6z" stroke-width=".672"/><path fill="#001e1de9" d="M268.8 638.4h33.6V672h-33.6z" stroke-width=".672"/><path fill="none" d="M302.4 638.4H336V672h-33.6z" stroke-width=".672"/><path fill="#001e1d65" d="M336 638.4h33.6V672H336z" stroke-width=".672"/><path fill="#001e1d93" d="M369.6 638.4h33.6V672h-33.6z" stroke-width=".672"/><path fill="#001e1d68" d="M403.2 638.4h33.6V672h-33.6z" stroke-width=".672"/><path fill="#001e1d1d" d="M436.8 638.4h33.6V672h-33.6z" stroke-width=".672"/><path fill="none" d="M470.4 638.4H504V672h-33.6zM504 638.4h33.6V672H504zM537.6 638.4h33.6V672h-33.6z" stroke-width=".672"/><path fill="#001e1deb" d="M571.2 638.4h33.6V672h-33.6z" stroke-width=".672"/><path fill="none" d="M604.8 638.4h33.6V672h-33.6z" stroke-width=".672"/><path fill="#001e1d20" d="M638.4 638.4H672V672h-33.6z" stroke-width=".672"/></g><defs><radialGradient id="a"><stop offset="0" stop-color="#fff"/><stop offset="1" stop-color="#fff" stop-opacity="0"/></radialGradient></defs></svg>